<mxfile host="app.diagrams.net" agent="Mozilla/5.0 (Windows NT 10.0; Win64; x64) AppleWebKit/537.36 (KHTML, like Gecko) Chrome/131.0.0.0 Safari/537.36" version="26.0.1">
  <diagram name="Page-1" id="EtaP9dJmNPpNIkBdqt-V">
    <mxGraphModel dx="1043" dy="669" grid="1" gridSize="10" guides="1" tooltips="1" connect="1" arrows="1" fold="1" page="1" pageScale="1" pageWidth="850" pageHeight="1100" math="0" shadow="0">
      <root>
        <mxCell id="0" />
        <mxCell id="1" parent="0" />
        <mxCell id="GNXbmUJe4ZyUbetsLbS8-1" value="Container" style="swimlane;" vertex="1" parent="1">
          <mxGeometry x="70" y="40" width="370" height="640" as="geometry" />
        </mxCell>
        <mxCell id="GNXbmUJe4ZyUbetsLbS8-4" style="edgeStyle=orthogonalEdgeStyle;rounded=0;orthogonalLoop=1;jettySize=auto;html=1;entryX=0.5;entryY=0;entryDx=0;entryDy=0;" edge="1" parent="GNXbmUJe4ZyUbetsLbS8-1" source="GNXbmUJe4ZyUbetsLbS8-2">
          <mxGeometry relative="1" as="geometry">
            <mxPoint x="120" y="130" as="targetPoint" />
          </mxGeometry>
        </mxCell>
        <mxCell id="GNXbmUJe4ZyUbetsLbS8-2" value="" style="ellipse;whiteSpace=wrap;html=1;aspect=fixed;" vertex="1" parent="GNXbmUJe4ZyUbetsLbS8-1">
          <mxGeometry x="95" y="50" width="50" height="50" as="geometry" />
        </mxCell>
        <mxCell id="GNXbmUJe4ZyUbetsLbS8-6" style="edgeStyle=orthogonalEdgeStyle;rounded=0;orthogonalLoop=1;jettySize=auto;html=1;entryX=0.5;entryY=0;entryDx=0;entryDy=0;" edge="1" parent="GNXbmUJe4ZyUbetsLbS8-1" target="GNXbmUJe4ZyUbetsLbS8-5">
          <mxGeometry relative="1" as="geometry">
            <mxPoint x="120.0769230769231" y="190" as="sourcePoint" />
          </mxGeometry>
        </mxCell>
        <mxCell id="GNXbmUJe4ZyUbetsLbS8-3" value="" style="rounded=1;whiteSpace=wrap;html=1;" vertex="1" parent="GNXbmUJe4ZyUbetsLbS8-1">
          <mxGeometry x="60" y="130" width="120" height="60" as="geometry" />
        </mxCell>
        <mxCell id="GNXbmUJe4ZyUbetsLbS8-8" style="edgeStyle=orthogonalEdgeStyle;rounded=0;orthogonalLoop=1;jettySize=auto;html=1;entryX=0.5;entryY=0;entryDx=0;entryDy=0;" edge="1" parent="GNXbmUJe4ZyUbetsLbS8-1" source="GNXbmUJe4ZyUbetsLbS8-5" target="GNXbmUJe4ZyUbetsLbS8-7">
          <mxGeometry relative="1" as="geometry" />
        </mxCell>
        <mxCell id="GNXbmUJe4ZyUbetsLbS8-5" value="" style="rhombus;whiteSpace=wrap;html=1;" vertex="1" parent="GNXbmUJe4ZyUbetsLbS8-1">
          <mxGeometry x="80" y="220" width="80" height="80" as="geometry" />
        </mxCell>
        <mxCell id="GNXbmUJe4ZyUbetsLbS8-7" value="" style="rounded=1;whiteSpace=wrap;html=1;" vertex="1" parent="GNXbmUJe4ZyUbetsLbS8-1">
          <mxGeometry x="60" y="340" width="120" height="60" as="geometry" />
        </mxCell>
      </root>
    </mxGraphModel>
  </diagram>
</mxfile>
